<?xml version="1.0" standalone="no"?>
<!DOCTYPE svg PUBLIC "-//W3C//DTD SVG 20010904//EN"
 "http://www.w3.org/TR/2001/REC-SVG-20010904/DTD/svg10.dtd">
<svg version="1.0" xmlns="http://www.w3.org/2000/svg"
 width="728.000000pt" height="123.000000pt" viewBox="0 0 728.000000 123.000000"
 preserveAspectRatio="xMidYMid meet">
<metadata>
Created by potrace 1.15, written by Peter Selinger 2001-2017
</metadata>
<g transform="translate(0.000000,123.000000) scale(0.100000,-0.100000)"
fill="#000000" stroke="none">
<path d="M4416 1210 c-88 -28 -121 -143 -59 -205 34 -33 107 -35 147 -4 15 12
25 24 22 27 -3 3 -15 -3 -25 -12 -27 -25 -105 -25 -131 -1 -24 22 -27 77 -5
95 24 20 69 14 118 -14 53 -31 97 -33 157 -5 45 20 120 84 120 103 0 5 -12 -2
-27 -16 -47 -45 -76 -45 -136 -4 -57 39 -127 53 -181 36z"/>
<path d="M4950 1203 c-19 -8 -80 -31 -134 -50 -215 -75 -266 -125 -266 -260
l0 -43 -40 0 c-21 0 -50 -5 -64 -11 -43 -20 -70 -102 -46 -139 9 -13 10 -13
10 1 0 8 9 25 20 37 41 44 120 42 120 -3 0 -21 -5 -25 -28 -25 -39 0 -62 -28
-62 -75 l0 -38 21 27 c14 17 29 26 43 24 20 -3 21 -8 21 -106 0 -100 -1 -105
-27 -127 -15 -13 -25 -25 -23 -26 2 -2 -23 -4 -55 -4 -43 0 -66 -5 -87 -21
-62 -45 -82 -148 -43 -224 49 -96 194 -131 308 -74 50 25 103 87 87 102 -4 4
-10 0 -13 -8 -3 -8 -21 -31 -41 -51 -41 -41 -119 -64 -180 -53 -49 9 -106 39
-125 66 -22 30 -21 91 2 110 32 29 59 30 139 3 113 -39 174 -35 226 13 41 39
57 107 57 244 l0 119 38 17 c52 23 156 22 206 -2 35 -18 38 -22 33 -54 -10
-57 -62 -157 -109 -206 -25 -25 -39 -46 -33 -46 6 0 17 6 25 12 8 7 -9 -13
-38 -45 -60 -68 -70 -98 -14 -46 57 55 83 69 127 69 43 0 72 -18 100 -62 9
-16 21 -28 26 -28 13 0 188 133 188 143 1 13 -22 8 -41 -10 -17 -15 -20 -15
-41 5 -55 52 -145 57 -233 12 l-58 -29 61 55 c72 63 153 179 179 256 14 40 19
82 19 168 0 112 -1 117 -36 190 -36 73 -93 143 -154 187 -28 20 -33 20 -65 6z
m-42 -119 c65 -58 101 -111 126 -182 l15 -42 -31 -16 c-53 -27 -147 -30 -201
-6 l-47 21 0 126 0 126 33 14 c17 8 35 14 38 15 3 0 33 -25 67 -56z m-160
-343 l-3 -359 -24 -26 c-30 -32 -86 -34 -146 -6 -38 18 -39 19 -12 19 43 1 91
26 112 57 18 27 20 53 25 324 4 192 10 305 18 323 29 68 33 27 30 -332z m312
-20 c0 -85 -2 -92 -17 -86 -92 39 -160 45 -220 20 -19 -8 -39 -15 -44 -15 -5
0 -9 43 -9 95 0 52 1 95 3 95 2 0 25 -7 51 -16 56 -19 147 -15 192 9 39 21 44
11 44 -102z"/>
<path d="M318 1197 c-122 -35 -179 -144 -132 -255 34 -83 107 -128 265 -167
109 -26 114 -28 105 -43 -4 -6 -37 -3 -88 8 -218 48 -311 117 -312 232 0 26
-4 44 -9 41 -21 -13 -47 -91 -47 -142 0 -129 79 -201 276 -251 43 -11 79 -21
80 -23 2 -2 -7 -18 -19 -36 -22 -33 -23 -33 -112 -35 -146 -4 -250 -57 -294
-149 -86 -177 88 -200 265 -34 l64 59 55 -28 c60 -30 139 -107 156 -151 l10
-28 22 30 c12 17 67 78 123 137 112 118 152 184 161 269 11 109 -40 196 -138
238 -42 18 -48 25 -39 36 20 24 71 52 128 71 l54 17 -26 25 c-24 24 -27 25
-53 11 -15 -8 -54 -41 -87 -73 l-59 -59 -131 27 c-151 32 -217 57 -251 98 -34
40 -34 96 0 128 33 31 118 39 168 15 52 -25 115 -92 145 -157 15 -32 29 -57
32 -55 18 7 172 178 166 184 -3 4 -19 -6 -36 -22 l-29 -28 -38 33 c-65 57
-134 82 -237 86 -56 3 -109 -1 -138 -9z m382 -495 c107 -64 118 -196 26 -306
l-25 -30 -46 43 c-46 42 -155 101 -187 101 -28 0 -31 18 -8 50 13 18 30 30 44
30 42 0 123 -30 151 -56 23 -22 27 -31 22 -64 -5 -36 -4 -38 14 -27 25 15 59
85 59 121 0 69 -50 122 -138 146 -25 6 -40 15 -36 21 10 16 73 1 124 -29z
m-382 -291 c16 -10 -50 -77 -121 -123 -53 -34 -128 -48 -152 -28 -15 13 -20
46 -9 74 8 20 65 55 117 72 48 14 145 18 165 5z"/>
<path d="M1148 1120 c-14 -11 -33 -36 -43 -56 l-17 -36 -14 28 c-14 26 -42 53
-56 54 -4 0 -2 -15 3 -32 5 -18 9 -70 9 -115 l0 -83 -33 0 c-26 0 -36 -6 -45
-25 -11 -25 -11 -25 33 -25 l45 0 0 -189 c0 -203 -5 -234 -51 -293 -35 -44
-22 -61 14 -18 30 36 37 37 37 9 0 -52 63 -129 107 -129 18 0 156 168 148 180
-4 7 -20 -4 -39 -26 l-33 -38 -19 29 c-17 26 -19 53 -22 252 l-4 223 51 0 c39
0 53 4 61 19 16 30 14 31 -51 31 l-61 0 4 113 c3 61 8 120 12 130 11 23 -5 22
-36 -3z"/>
<path d="M6947 848 c-26 -37 -83 -71 -139 -82 l-26 -6 -5 -127 c-2 -71 -8
-139 -12 -152 -7 -21 -6 -22 13 -12 33 18 96 13 125 -9 l25 -20 35 41 35 41
41 -24 41 -23 0 -78 0 -77 -42 27 c-36 24 -52 28 -114 28 -58 0 -78 -4 -100
-21 -41 -30 -64 -65 -71 -108 l-6 -39 30 22 c58 44 161 40 211 -7 l29 -27 21
36 c23 39 106 89 149 89 13 0 25 6 28 13 2 6 5 69 8 138 l4 126 -49 -5 c-40
-4 -55 0 -78 17 -16 11 -31 21 -33 21 -2 0 -18 -20 -36 -44 l-33 -44 -44 25
-44 25 0 84 c0 46 2 84 5 84 3 0 19 -10 36 -22 43 -32 142 -37 186 -9 40 25
62 59 70 106 l6 36 -34 -20 c-51 -31 -116 -28 -165 7 l-39 29 -28 -39z"/>
<path d="M1392 817 c-34 -34 -62 -68 -62 -75 0 -17 10 -15 32 5 17 15 21 15
29 3 21 -35 29 -94 29 -234 0 -139 -2 -151 -21 -172 l-21 -23 58 -55 59 -55
19 26 c11 14 36 38 57 53 l38 27 -24 23 c-24 22 -25 29 -25 142 0 124 11 164
60 228 l19 25 38 -40 37 -40 44 65 43 65 -23 15 c-13 8 -37 30 -55 48 l-31 34
-23 -43 c-12 -24 -40 -71 -63 -104 l-40 -60 -8 53 c-10 66 -29 105 -67 131
-16 12 -31 21 -33 21 -2 0 -32 -28 -66 -63z"/>
<path d="M2130 861 c-32 -18 -138 -52 -202 -65 l-28 -6 0 -196 0 -196 -45 -51
c-24 -28 -41 -55 -38 -60 3 -5 21 9 40 32 40 48 49 50 57 16 10 -41 73 -102
120 -118 l44 -15 57 54 c32 30 77 66 101 80 24 14 42 30 38 35 -3 5 -30 -7
-60 -26 -63 -41 -81 -43 -119 -13 -34 26 -55 75 -55 125 0 35 4 41 59 76 32
20 92 52 132 69 41 18 75 33 77 34 9 5 -120 244 -131 244 -6 -1 -28 -9 -47
-19z m-6 -156 l54 -100 -69 -42 -69 -42 0 145 c0 179 8 183 84 39z"/>
<path d="M2397 837 l-37 -45 21 -26 c11 -14 35 -28 53 -32 30 -5 34 -10 39
-46 3 -23 16 -55 28 -71 14 -19 18 -32 11 -35 -29 -9 -94 -66 -118 -102 -28
-42 -42 -118 -30 -165 7 -28 72 -105 89 -105 6 0 38 26 71 58 34 33 75 66 92
75 l32 16 6 -41 c7 -45 61 -108 93 -108 18 0 153 149 153 169 0 18 -10 13 -37
-20 l-26 -30 -21 21 c-18 18 -22 36 -26 133 -8 169 -1 217 38 272 41 59 32 74
-13 21 -31 -37 -33 -38 -40 -17 -9 31 -62 89 -96 107 -36 18 -36 18 -43 -11
-4 -14 -21 -34 -39 -45 -60 -37 -126 -19 -151 42 l-13 29 -36 -44z m243 -143
c10 -42 13 -164 5 -164 -13 0 -116 83 -130 104 -9 13 -19 40 -22 60 -5 33 -4
36 18 36 13 0 38 9 54 19 28 18 31 18 48 1 10 -9 22 -35 27 -56z m-32 -166
c41 -28 42 -31 42 -83 l0 -54 -55 -36 c-31 -19 -57 -35 -59 -35 -1 0 -11 18
-21 39 -22 49 -17 146 8 185 19 29 18 29 85 -16z"/>
<path d="M2948 813 c-54 -65 -70 -107 -23 -63 l22 21 18 -37 c13 -28 18 -72
22 -199 l4 -162 -26 -32 c-15 -17 -22 -31 -15 -31 6 0 33 -22 59 -48 l48 -48
57 53 58 54 -26 24 c-26 24 -26 25 -26 183 l0 159 39 44 c34 39 40 42 55 30
36 -30 41 -56 46 -246 5 -156 10 -197 25 -229 17 -35 66 -77 90 -75 10 0 137
149 143 168 6 19 -14 12 -38 -14 -53 -57 -72 -15 -77 170 l-4 140 38 47 c21
26 45 46 52 45 8 -1 24 -18 35 -37 19 -31 22 -57 26 -225 5 -152 9 -196 23
-222 18 -33 62 -73 82 -73 11 0 155 162 155 174 0 17 -32 2 -53 -25 l-25 -32
-18 29 c-17 24 -19 49 -19 190 l0 162 33 40 c17 23 32 46 32 51 0 21 -19 11
-46 -24 l-27 -36 -17 38 c-20 45 -54 77 -94 93 -34 13 -36 12 -113 -82 l-57
-70 -13 36 c-7 20 -21 50 -32 65 -20 28 -84 66 -100 59 -4 -2 -36 -37 -72 -78
l-63 -74 -9 38 c-10 40 -74 116 -98 116 -8 0 -40 -30 -71 -67z"/>
<path d="M5670 861 c-32 -18 -138 -52 -202 -65 l-28 -6 0 -196 0 -196 -45 -51
c-24 -28 -41 -55 -38 -60 3 -5 21 9 40 32 19 22 38 41 42 41 4 0 13 -15 19
-34 16 -44 80 -102 127 -115 35 -9 38 -8 72 30 20 22 64 58 99 81 35 23 61 45
58 50 -3 4 -30 -8 -60 -27 -63 -41 -81 -43 -119 -13 -34 26 -55 75 -55 125 0
35 4 41 59 76 32 20 92 52 132 69 41 18 75 33 77 34 9 5 -120 244 -131 244 -6
-1 -28 -9 -47 -19z m-6 -156 l54 -100 -69 -42 -69 -42 0 145 c0 179 8 183 84
39z"/>
<path d="M5952 817 c-34 -34 -62 -68 -62 -75 0 -17 10 -15 32 5 17 15 21 15
29 3 20 -32 29 -90 29 -190 -1 -115 -12 -160 -55 -216 -37 -49 -21 -58 21 -10
l33 38 7 -28 c15 -64 81 -134 126 -134 8 0 43 36 79 80 35 43 67 79 70 80 4 0
10 -16 13 -35 9 -45 61 -97 113 -113 58 -17 73 -15 95 13 11 14 37 34 58 45
66 34 70 46 70 216 0 83 3 165 6 182 6 32 30 63 61 81 16 9 15 13 -14 38 -17
15 -38 41 -46 57 l-14 28 -23 -37 c-13 -20 -36 -45 -52 -55 l-30 -18 31 -18
c53 -31 61 -63 61 -241 0 -149 -1 -161 -21 -182 -31 -33 -90 -24 -133 18 l-31
31 -3 132 c-4 161 0 186 43 242 41 54 30 71 -14 21 -17 -20 -31 -30 -31 -24 0
29 -44 101 -69 114 -27 14 -29 13 -95 -54 -38 -38 -64 -71 -58 -75 5 -3 15 1
22 9 39 47 60 -21 60 -193 l0 -139 -36 -46 c-30 -39 -39 -45 -55 -36 -42 22
-49 58 -49 246 0 152 -3 184 -19 219 -16 36 -62 84 -80 84 -4 0 -35 -28 -69
-63z"/>
</g>
</svg>
